<svg width="60" height="71" fill="none" xmlns="http://www.w3.org/2000/svg"><path d="M19.438 42.458c-1.329-1.44-3.185-2.232-5.233-2.232-2.06 0-3.922.788-5.245 2.218-1.337 1.446-1.989 3.41-1.836 5.532.304 4.186 3.48 7.591 7.08 7.591 3.601 0 6.772-3.404 7.08-7.59.155-2.102-.5-4.063-1.846-5.52Zm6.785 28.45H2.186a2.111 2.111 0 0 1-1.653-.762c-.444-.532-.623-1.259-.49-1.994.576-3.206 2.375-5.9 5.202-7.79 2.512-1.68 5.693-2.603 8.96-2.603 3.266 0 6.447.924 8.96 2.602 2.826 1.89 4.625 4.584 5.201 7.79.133.735-.046 1.462-.49 1.994a2.117 2.117 0 0 1-1.653.763Zm24.809-28.45c-1.329-1.44-3.185-2.232-5.234-2.232-2.06 0-3.922.788-5.244 2.218-1.337 1.446-1.989 3.41-1.836 5.532.303 4.186 3.48 7.591 7.08 7.591 3.601 0 6.772-3.404 7.08-7.59.155-2.102-.5-4.063-1.846-5.52Zm6.785 28.45H33.78a2.112 2.112 0 0 1-1.652-.762c-.444-.532-.623-1.259-.49-1.994.576-3.206 2.375-5.9 5.202-7.79 2.511-1.68 5.693-2.603 8.96-2.603 3.266 0 6.447.924 8.959 2.602 2.827 1.89 4.626 4.584 5.202 7.79.133.735-.046 1.462-.49 1.994a2.117 2.117 0 0 1-1.653.763ZM11.655 30.69c0 .005 0 .017-.007.032l.007-.033Zm32.623 1.41a2.302 2.302 0 0 1-.825-.172l-4.881-1.73-.036-.014a.887.887 0 0 0-.647-.009c-.12.045-1.188.446-2.309.754-.608.167-2.723.71-4.421.71-4.34 0-8.398-1.666-11.425-4.694a15.755 15.755 0 0 1-4.652-11.214c0-1.085.117-2.168.35-3.229.755-3.49 2.756-6.665 5.635-8.936a16.749 16.749 0 0 1 10.35-3.568c4.488 0 8.67 1.719 11.778 4.827 2.936 2.945 4.546 6.817 4.533 10.902a15.277 15.277 0 0 1-2.605 8.52l-.016.024-.064.086c-.015.02-.03.038-.043.058l-.013.023a1.86 1.86 0 0 0-.093.18l1.354 4.806c.06.199.092.404.096.611a2.062 2.062 0 0 1-2.066 2.065Z" fill="#fff"/><path d="M32.248 33.934a1.355 1.355 0 0 0-.89-.697c-.5-.132-1.082-.11-1.527-.142a17.477 17.477 0 0 1-11.137-5.058 17.123 17.123 0 0 1-4.901-9.705c-.121-.838-.121-1.047-.121-1.047a1.373 1.373 0 0 0-.894-1.288 1.389 1.389 0 0 0-1.527.378s-.681.738-1.003 1.48a13.902 13.902 0 0 0 .951 12.918c.225.373.225.545.175.932l-.865 4.47a2.058 2.058 0 0 0 .692 1.972l.04.034a2.11 2.11 0 0 0 1.307.455c.267 0 .531-.053.778-.155l4.626-1.777a.7.7 0 0 1 .495 0c1.821.675 3.717 1.033 5.514 1.033a15.27 15.27 0 0 0 6.476-1.434c.472-.22 1.21-.46 1.643-.958a1.288 1.288 0 0 0 .168-1.41Z" fill="#6100DC"/><circle cx="23.184" cy="15.908" fill="#6100DC" r="2.5"/><circle cx="31.59" cy="15.908" fill="#6100DC" r="2.5"/><circle cx="40.227" cy="15.908" fill="#6100DC" r="2.5"/></svg>