<svg width="60" height="60" fill="none" xmlns="http://www.w3.org/2000/svg"><path d="M59.684.813a.637.637 0 0 0-.475-.49c-7.844-1.92-25.97 4.92-35.789 14.745a42.481 42.481 0 0 0-4.772 5.644c-3.028-.268-6.056-.044-8.637 1.082C2.729 25 .609 33.371.018 36.972a1.293 1.293 0 0 0 1.413 1.502l11.694-1.291c.008.882.061 1.764.16 2.64a2.62 2.62 0 0 0 .762 1.61l4.529 4.52c.43.435.999.705 1.607.765.871.097 1.747.15 2.624.16l-1.284 11.689a1.294 1.294 0 0 0 1.5 1.414c3.591-.577 11.969-2.699 15.155-9.987 1.125-2.583 1.355-5.6 1.095-8.615a42.56 42.56 0 0 0 5.654-4.778C54.777 26.79 61.573 9.055 59.684.813ZM35.1 24.898a6.437 6.437 0 0 1 4.544-10.986 6.425 6.425 0 0 1 5.94 3.973 6.44 6.44 0 0 1-5.94 8.9 6.417 6.417 0 0 1-4.544-1.887Z" fill="#fff"/><path d="M18.227 49.16c-.725.727-1.889 1.01-3.29 1.253-3.146.536-5.925-2.184-5.36-5.365.216-1.206.854-2.897 1.252-3.294a.578.578 0 0 0-.484-.986 7.942 7.942 0 0 0-4.65 2.266C2.583 46.15 2.29 57.71 2.29 57.71s11.564-.294 14.676-3.41a7.903 7.903 0 0 0 2.268-4.654c.05-.554-.625-.884-1.006-.485Z" fill="#fff"/><path d="M18.227 49.16c-.725.727-1.889 1.01-3.29 1.253-3.146.536-5.925-2.184-5.36-5.365.216-1.206.854-2.897 1.252-3.294a.578.578 0 0 0-.484-.986 7.942 7.942 0 0 0-4.65 2.266C2.583 46.15 2.29 57.71 2.29 57.71s11.564-.294 14.676-3.41a7.903 7.903 0 0 0 2.268-4.654c.05-.554-.625-.884-1.006-.485Z" fill="#028DFA"/></svg>