<svg width="59" height="60" fill="none" xmlns="http://www.w3.org/2000/svg"><path d="m3.574 28.932.133.267c.534 1.05 2.052 1.05 2.586 0l.134-.267a5.83 5.83 0 0 1 2.518-2.516l.267-.134c1.051-.533 1.051-2.05 0-2.583l-.267-.133a5.829 5.829 0 0 1-2.518-2.517l-.134-.267c-.534-1.05-2.052-1.05-2.586 0l-.133.267a5.828 5.828 0 0 1-2.519 2.517l-.267.133c-1.05.533-1.05 2.05 0 2.583l.267.134a5.83 5.83 0 0 1 2.519 2.516Zm2.886-17.4.5.25a10.58 10.58 0 0 1 4.605 4.6l.25.5c.984 1.934 3.753 1.934 4.737 0l.25-.5a10.58 10.58 0 0 1 4.605-4.6l.5-.25c1.935-.983 1.935-3.75 0-4.733l-.5-.25a10.58 10.58 0 0 1-4.605-4.6l-.25-.5c-.984-1.933-3.753-1.933-4.737 0l-.25.5a10.58 10.58 0 0 1-4.605 4.6l-.5.25c-1.935.983-1.935 3.75 0 4.733Zm50.111 7.6-1.868-2.35 1.068-2.916a7.406 7.406 0 0 0-1.735-7.867 7.42 7.42 0 0 0-7.874-1.733l-2.92 1.066-2.351-1.866c-2.336-1.85-5.438-2.167-8.09-.8-2.653 1.366-4.205 4.05-4.071 7.033l.133 2.867-2.452 1.616c-2.469 1.634-3.72 4.467-3.27 7.384.15 1 .5 1.916 1.001 2.733L2.973 46.166c-2.885 2.983-2.852 7.8.084 10.733a7.656 7.656 0 0 0 5.421 2.233c1.969 0 3.854-.716 5.322-2.133l21.886-21.15c.817.5 1.735.85 2.736 1 .4.067.784.083 1.168.083 2.485 0 4.804-1.233 6.222-3.366l1.618-2.45 2.87.133c2.985.167 5.67-1.417 7.039-4.067 1.368-2.65 1.05-5.75-.801-8.083l.033.033ZM24.776 30.866l3.27-3.384c.15.05.3.117.45.167l3.02.867.867 3.016c.05.15.117.3.167.45l-5.155 4.984-2.619-6.084v-.016Zm-1.234 9.8-4.57 4.417-2.436-5.7 4.487-4.634 2.535 5.917h-.016Zm-13.195 12.75c-1.035 1-2.72.983-3.737-.033-1.018-1.017-1.034-2.684-.033-3.734l6.155-6.367 2.369 5.517-4.77 4.6.016.017Zm42.571-28.484c-.167.334-.867 1.417-2.335 1.35l-3.003-.15a4.815 4.815 0 0 0-4.22 2.134l-1.702 2.566c-.817 1.234-2.085 1.15-2.452 1.084-.367-.05-1.602-.35-2.019-1.767l-.9-3.133a4.711 4.711 0 0 0-3.27-3.267l-3.136-.9c-1.418-.4-1.718-1.633-1.768-2.017-.05-.383-.15-1.633 1.084-2.45l2.569-1.7a4.77 4.77 0 0 0 2.135-4.216l-.15-3c-.067-1.484 1.018-2.167 1.351-2.334.184-.1.617-.283 1.168-.283.45 0 .984.133 1.518.55l2.452 1.95a4.818 4.818 0 0 0 4.604.75l3.036-1.117c1.385-.5 2.352.317 2.62.584.266.266 1.084 1.233.583 2.616l-1.118 3.034a4.765 4.765 0 0 0 .751 4.6l1.952 2.45c.934 1.166.434 2.35.267 2.683l-.017-.017Z" fill="#fff"/><path d="m3.574 28.932.133.267c.534 1.05 2.052 1.05 2.586 0l.134-.267a5.83 5.83 0 0 1 2.518-2.516l.267-.134c1.051-.533 1.051-2.05 0-2.583l-.267-.133a5.829 5.829 0 0 1-2.518-2.517l-.134-.267c-.534-1.05-2.052-1.05-2.586 0l-.133.267a5.828 5.828 0 0 1-2.519 2.517l-.267.133c-1.05.533-1.05 2.05 0 2.583l.267.134a5.83 5.83 0 0 1 2.519 2.516Zm2.886-17.4.5.25a10.58 10.58 0 0 1 4.605 4.6l.25.5c.984 1.934 3.753 1.934 4.737 0l.25-.5a10.58 10.58 0 0 1 4.605-4.6l.5-.25c1.935-.983 1.935-3.75 0-4.733l-.5-.25a10.58 10.58 0 0 1-4.605-4.6l-.25-.5c-.984-1.933-3.753-1.933-4.737 0l-.25.5a10.58 10.58 0 0 1-4.605 4.6l-.5.25c-1.935.983-1.935 3.75 0 4.733Zm47.142 36.934-.5-.25a10.58 10.58 0 0 1-4.605-4.6l-.25-.5c-.984-1.934-3.754-1.934-4.738 0l-.25.5a10.58 10.58 0 0 1-4.604 4.6l-.5.25c-1.936.983-1.936 3.75 0 4.733l.5.25a10.58 10.58 0 0 1 4.604 4.6l.25.5c.984 1.933 3.754 1.933 4.738 0l.25-.5a10.58 10.58 0 0 1 4.604-4.6l.5-.25c1.936-.983 1.936-3.75 0-4.733Z" fill="#FFCD29"/></svg>