<svg width="1919" height="556" fill="none" xmlns="http://www.w3.org/2000/svg"><mask id="a" style="mask-type:alpha" maskUnits="userSpaceOnUse" x="0" y="0" width="1919" height="758"><path d="M1919 757.344H0V109.842s126.555 119.836 371.806 0c302.606-147.861 868.744 56.434 1185.724 24.554C1805.64 109.443 1919 .344 1919 .344v757Z" fill="#028DFC"/></mask><g mask="url(#a)"><path d="M1919 727.344c0 16.568-13.43 30-30 30H30c-16.569 0-30-13.432-30-30v-727h1919v727Z" fill="#D9D9D9"/><path d="M1919 727.344c0 16.568-13.43 30-30 30H30c-16.569 0-30-13.432-30-30v-727h1919v727Z" fill="#3EA9FF"/></g></svg>