<svg width="202" height="60" fill="none" xmlns="http://www.w3.org/2000/svg"><g clip-path="url(#a)"><path d="M75.364 39.5h-4.172A1.195 1.195 0 0 1 70 38.304V23.502c0-.597.477-1.194 1.192-1.194h4.172c1.43 0 2.742.239 3.934.597 1.192.477 2.146 1.075 2.86 1.79.835.836 1.312 1.672 1.789 2.747.358 1.074.596 2.148.596 3.342s-.238 2.269-.596 3.343c-.358 1.074-.954 2.03-1.788 2.746-.715.716-1.788 1.432-2.861 1.79-1.073.597-2.384.836-3.934.836Zm-2.503-2.866h2.503c1.073 0 2.027-.12 2.861-.478.715-.238 1.43-.716 1.907-1.193.477-.478.835-1.075 1.073-1.791.239-.716.358-1.552.358-2.388 0-.835-.12-1.671-.358-2.387-.238-.717-.596-1.314-1.073-1.791-.476-.478-1.072-.836-1.907-1.194-.834-.239-1.788-.477-2.86-.477H72.86v11.699Zm67.713 2.746c-.954 0-2.027-.12-2.98-.358a13.395 13.395 0 0 1-2.623-.956c-.358-.238-.596-.596-.596-1.074v-.477c0-.359.238-.836.596-.956a1.082 1.082 0 0 1 1.192 0c.596.359 1.311.597 2.027.836a8.293 8.293 0 0 0 3.814.12l1.073-.359c.238-.119.477-.358.596-.596.119-.24.238-.478.238-.836s-.119-.716-.238-.955c-.238-.239-.358-.478-.715-.716-.358-.24-.715-.478-1.192-.597-.596-.24-1.073-.359-1.669-.597-.596-.24-1.192-.358-1.788-.597-.596-.239-1.192-.597-1.788-.955-.596-.358-.954-.836-1.312-1.433-.357-.597-.596-1.432-.596-2.268 0-.836.239-1.552.596-2.149.358-.597.835-1.074 1.431-1.552.596-.358 1.192-.597 1.788-.836 1.43-.358 2.98-.358 4.53 0 .834.24 1.549.478 2.265.836.357.239.596.597.596 1.075v.477c0 .478-.239.836-.596 1.075a1.082 1.082 0 0 1-1.192 0c-.477-.24-.954-.478-1.669-.597-.596-.12-1.312-.24-1.908-.24-.476 0-.834 0-1.311.12-.357.12-.715.239-.953.358-.239.12-.358.359-.596.597-.12.239-.239.478-.239.836 0 .597.239.836.358 1.074.357.358.834.597 1.311.955.596.24 1.311.478 2.146.717.834.238 1.669.597 2.384.955.834.358 1.549.955 2.145 1.552.597.716.954 1.671.954 2.865 0 .836-.238 1.671-.596 2.268-.358.597-.834 1.075-1.43 1.552a5.261 5.261 0 0 1-1.908.716c-.715 0-1.43.12-2.145.12Z" fill="#151515"/><path d="M26.85 17.652c-.358.12-.835.239-1.193.358-.715.24-1.192.836-1.55 1.552-.834 1.672-.714 3.582-.714 5.492.119 3.104.357 6.208.596 9.431 0 .239 0 .478.238.597.238.239.596.358.834.358 3.219.478 6.557.955 9.537-.597.238-.12.477-.358.477-.597 0-.12-.12-.238-.239-.358-.477-.716-1.192-1.194-1.669-1.91-.953-1.313-.834-3.462.477-4.298.239-.12.596-.238.715-.477.358-.478.12-1.313.716-1.672.119-.119.357-.119.596-.238 1.192-.478 1.311-2.269.834-3.462-.596-1.314-1.788-2.388-3.1-2.985-1.787-1.074-4.41-1.552-6.555-1.194Z" fill="#00A0B4"/><path d="M65.474 39.141c-.715-2.626-6.556-25.786-6.914-27.577-.715-2.985-4.41-4.298-7.39-3.104-1.431.597-27.776 7.998-27.776 7.998s17.285 1.075 13.59 8.596c-.477 1.074-4.291 4.178-4.65 5.133.12 0 .24.12.24.12 2.383 1.432 5.006 3.581 7.39 4.656 1.311.596 2.98 3.223 2.503 4.894-1.192 4.298-.596 3.343-3.576 2.15-1.073-.478-2.026.715-2.98.119-.954 1.313 2.623.835-.954 1.552 0 0 23.841 2.029 25.63 2.148 4.41.358 6.079-1.79 4.887-6.685Z" fill="#009CCA"/><path d="M19.1 1.416C16.717 3.206 3.009 13.354 1.459 14.668c-2.265 2.029-1.788 5.252.715 7.162 1.312.955 20.504 15.281 20.504 15.281s2.265-4.536 1.907-10.147c-.12-1.433-.596-4.537-.358-5.85.12-.836.239-1.79.954-2.268.358-.239.715-.239 1.073-.358 2.146-.24 4.291.12 6.08 1.194.715.358 1.31.835 2.026 1.193 1.073.478 1.669.12 2.622 0 .596-.12 1.192-.238 1.67.478 0 0-10.252-16.475-11.325-18.146C24.822-.494 22.2-.853 19.1 1.417Z" fill="#8480AD" opacity=".6"/><path d="M7.894 56.57c1.55 1.195 2.026 1.433 3.576 2.388 1.788 1.075 4.053 1.672 6.794 0 5.722-3.581 22.053-14.564 24.557-16.713 1.669-1.433.357-3.581-.358-5.492-.238-.596-3.934-1.91-4.53-2.148-3.814-1.552-5.126.119-8.821.358-.596 0-1.311 0-1.788-.24a2.815 2.815 0 0 1-1.073-.954c-1.907-2.149-.358-6.089-1.192-8.715-.596-2.149-2.623-7.88-2.623-7.88S8.49 46.663 7.774 48.454c-1.55 3.462-2.741 5.85.12 8.118Z" fill="#00A0B4" opacity=".5"/><path d="m23.395 16.458 10.37-2.984 4.292 6.804-14.663-3.82Z" fill="#8480AD"/><path d="m15.523 31.74 7.391 5.372-.477-19.818-6.914 14.446Z" fill="#00A0B4"/><path d="M37.342 43.917a16.21 16.21 0 0 1-3.457-.358c-1.073-.24-2.146-.597-3.1-1.075-.476-.239-.715-.716-.715-1.194v-.716c0-.477.239-.955.715-1.194.477-.239 1.073-.239 1.431 0 .715.358 1.55.717 2.384.836 1.43.358 2.98.358 4.291.12.477-.12.835-.24 1.193-.359.238-.12.476-.358.596-.597.119-.239.238-.477.238-.835s-.12-.717-.238-.955c-.239-.359-.477-.597-.716-.717-.357-.238-.834-.477-1.43-.716s-1.311-.477-1.907-.597c-.716-.239-1.43-.477-2.027-.716-.715-.239-1.43-.597-2.026-1.075-.596-.477-1.192-.955-1.55-1.671-.477-.716-.715-1.552-.715-2.507 0-.955.238-1.79.596-2.507a3.77 3.77 0 0 1 1.669-1.671 8.937 8.937 0 0 1 2.145-.955c1.67-.359 3.457-.359 5.245 0 .954.238 1.908.597 2.623.955.477.238.715.716.715 1.193v.836c0 .478-.238.955-.715 1.194s-1.073.239-1.43 0a13.879 13.879 0 0 0-1.789-.716c-.715-.12-1.43-.24-2.145-.24-.477 0-.954 0-1.43.12l-1.074.358c-.238.12-.477.359-.596.597-.119.24-.238.478-.238.836 0 .597.238.836.358 1.074.357.359.953.717 1.55.956.714.358 1.549.596 2.383.835.954.239 1.907.597 2.742 1.075.954.477 1.788 1.074 2.384 1.79a4.855 4.855 0 0 1 1.192 3.224c0 .955-.238 1.79-.715 2.507-.477.716-1.073 1.313-1.788 1.671-.715.358-1.43.716-2.265.836-.715.238-1.55.358-2.384.358Z" fill="#fff"/><path d="M39.367 22.785c-.477-1.313-1.192-2.507-2.146-3.462-.954-.955-2.146-1.671-3.576-2.268a14.188 14.188 0 0 0-4.768-.836H23.87c-.834 0-1.55.716-1.55 1.552v17.907c0 .836.716 1.552 1.55 1.552h5.126c1.788 0 3.338-.238 4.768-.835 1.43-.478 2.623-1.313 3.576-2.269.358-.358.596-.716.954-1.074a10.958 10.958 0 0 1-3.338-1.671c0 .12-.119.12-.119.238-.596.597-1.311 1.075-2.265 1.314-.954.358-2.026.477-3.457.477h-2.86V20.04h2.86c1.311 0 2.503.119 3.457.477a8.097 8.097 0 0 1 2.265 1.313c.596.597.954 1.313 1.311 2.03.358.835.477 1.79.477 2.865v.358c1.192-.239 2.503 0 3.695.478v-.836c-.238-1.313-.476-2.627-.953-3.94Z" fill="#fff"/><path d="M73.216 44.99h-.238v-2.267l-.954 1.552-.954-1.552v2.268h-.238v-2.746h.357l.954 1.552.954-1.552h.357v2.746h-.238Zm3.336-1.312v.119h-2.384c.12.597.477.955 1.192.955.477 0 .715-.239.954-.478l.238.12c-.238.358-.596.597-1.192.597-.834 0-1.43-.597-1.43-1.433 0-.836.596-1.432 1.43-1.432.715.119 1.192.835 1.192 1.552Zm-2.384-.12h2.146a1.07 1.07 0 0 0-1.073-1.074 1.07 1.07 0 0 0-1.073 1.074Zm5.484 1.432-1.192-1.313v1.313h-.238v-1.313L77.03 44.99h-.358l1.311-1.432-1.192-1.313h.358l1.192 1.193v-1.193h.238v1.193l1.192-1.193h.358l-1.192 1.313 1.311 1.432h-.596Zm3.461-.239v.956h-.239v-.717H80.61v.716h-.239v-.955h.358c.238-.238.238-.596.238-1.074v-1.313h1.907v2.387h.239Zm-.596 0v-2.148h-1.311v1.074c0 .477-.12.836-.239 1.074h1.55Zm3.336-2.506-1.192 2.984c-.239.478-.596.836-1.073.836v-.239c.358 0 .596-.239.835-.597v-.12l-1.192-2.745h.238l1.073 2.388.953-2.388h.358v-.12Zm2.742 0v2.745h-.239v-1.193h-1.668v1.193h-.239v-2.745h.239v1.193h1.668v-1.193h.239Zm3.457 0v2.745h-.238v-.596c-.239.358-.596.716-1.192.716-.716 0-1.43-.597-1.43-1.433 0-.835.595-1.432 1.43-1.432.477 0 .953.238 1.192.716v-.597h.238v-.12Zm-.238 1.432c0-.597-.477-1.194-1.192-1.194-.596 0-1.192.478-1.192 1.194 0 .597.476 1.194 1.192 1.194.715-.12 1.192-.597 1.192-1.194Zm3.93 0c0 .835-.596 1.432-1.43 1.432-.478 0-.954-.239-1.193-.716v1.671h-.238v-3.82h.238v.716c.239-.358.596-.716 1.192-.716.715 0 1.43.597 1.43 1.433Zm-.358 0c0-.597-.477-1.194-1.192-1.194-.596 0-1.192.477-1.192 1.194 0 .597.477 1.194 1.192 1.194.715-.12 1.192-.597 1.192-1.194Zm.716.001c0-.836.596-1.433 1.43-1.433.835 0 1.43.597 1.43 1.433 0 .835-.596 1.432-1.43 1.432-.715-.12-1.43-.716-1.43-1.432Zm2.622 0c0-.597-.477-1.194-1.192-1.194-.596 0-1.192.477-1.192 1.194 0 .597.477 1.194 1.192 1.194.715-.12 1.192-.597 1.192-1.194Zm3.338 1.073v.956h-.238v-.717h-2.265v.716h-.239v-.955h.358c.239-.238.239-.596.239-1.074v-1.313h1.907v2.387h.238Zm-.596 0v-2.148h-1.311v1.074c0 .477-.119.836-.239 1.074h1.55Zm3.457-2.506v2.746h-.238v-1.194h-1.669v1.194h-.239v-2.746h.239v1.194h1.669v-1.194h.238Zm3.461 0v2.745h-.238v-.596c-.238.358-.596.716-1.192.716-.715 0-1.431-.597-1.431-1.433 0-.835.596-1.432 1.431-1.432.477 0 .954.238 1.192.716v-.597h.238v-.12Zm-.357 1.432c0-.597-.477-1.194-1.192-1.194-.596 0-1.192.478-1.192 1.194 0 .597.476 1.194 1.192 1.194.715-.12 1.192-.597 1.192-1.194Zm2.976 1.313h-.238v-1.074h-.596l-.835 1.074h-.357l.834-1.074c-.477 0-.715-.358-.715-.836 0-.477.357-.835.834-.835h1.073v2.745Zm-.238-1.313v-1.074h-.835c-.357 0-.596.239-.596.597s.239.597.596.597h.835v-.12Zm2.383 0c0-.836.596-1.433 1.431-1.433.477 0 .954.239 1.192.716l-.238.12c-.12-.358-.477-.597-.954-.597-.596 0-1.192.477-1.192 1.194 0 .597.477 1.194 1.192 1.194.477 0 .834-.24.954-.597l.238.119c-.238.358-.715.716-1.192.716-.835-.12-1.431-.716-1.431-1.432Zm5.365-1.432v2.745h-.239v-2.268l-1.668 2.268h-.239v-2.745h.239v2.268l1.668-2.268h.239Zm.596 1.432c0-.836.596-1.433 1.431-1.433.477 0 .953.239 1.192.716l-.239.12c-.119-.358-.476-.597-.953-.597-.596 0-1.192.477-1.192 1.194 0 .597.477 1.194 1.192 1.194.477 0 .834-.24.953-.597l.239.119c-.239.358-.715.716-1.192.716-.835-.12-1.431-.716-1.431-1.432Zm5.127-1.075h-.954v2.388h-.239v-2.388h-.953v-.238h2.265v.239h-.119Zm2.859 1.075v.12h-2.384c.119.596.477.954 1.192.954.477 0 .715-.238.954-.477l.238.12c-.238.357-.596.596-1.192.596-.834 0-1.43-.597-1.43-1.432 0-.836.596-1.433 1.43-1.433.715.12 1.192.836 1.192 1.552Zm-2.384-.12h2.146a1.07 1.07 0 0 0-1.073-1.074 1.07 1.07 0 0 0-1.073 1.075Zm5.603 1.433h-.239v-2.268l-.953 1.552-.954-1.552v2.268h-.238v-2.745h.357l.954 1.552.954-1.552h.357v2.745h-.238Zm3.457-2.746v2.746h-.238v-.597c-.239.358-.596.716-1.192.716-.716 0-1.431-.597-1.431-1.432 0-.836.596-1.433 1.431-1.433.476 0 .953.239 1.192.716v-.596h.238v-.12Zm-.238 1.433c0-.597-.477-1.194-1.192-1.194a1.195 1.195 0 0 0 0 2.388c.715-.12 1.192-.597 1.192-1.194Zm6.082-1.432v2.745h-3.576v-2.745h.238v2.387h1.431v-2.387h.238v2.387h1.312v-2.387h.357Zm2.503 2.745-1.43-1.313v1.313h-.239v-2.745h.239v1.193l1.311-1.193h.357l-1.43 1.313 1.55 1.432h-.358Zm.476-1.313c0-.835.596-1.432 1.43-1.432.835 0 1.431.597 1.431 1.432 0 .836-.596 1.433-1.431 1.433-.834-.12-1.43-.716-1.43-1.433Zm2.503 0c0-.597-.477-1.194-1.192-1.194-.596 0-1.192.478-1.192 1.194 0 .597.477 1.194 1.192 1.194.715-.12 1.192-.597 1.192-1.194Zm2.981 1.313h-.239v-2.388h-1.311v1.314c0 .955-.358 1.194-.954 1.074v-.239c.358 0 .596-.238.596-.835v-1.552h1.908v2.626Zm4.529-2.746v2.746h-.239v-2.268l-1.669 2.268h-.238v-2.746h.238v2.268l1.669-2.268h.239Zm2.984.001v2.745h-.238v-1.193h-1.669v1.193h-.239v-2.745h.239v1.193h1.669v-1.193h.238Zm.71 1.432c0-.836.596-1.433 1.43-1.433.835 0 1.431.597 1.431 1.433 0 .835-.596 1.432-1.431 1.432-.834-.12-1.43-.716-1.43-1.432Zm2.503 0c0-.597-.477-1.194-1.192-1.194-.596 0-1.192.477-1.192 1.194 0 .597.477 1.194 1.192 1.194.715-.12 1.192-.597 1.192-1.194Zm.719 0c0-.835.596-1.432 1.431-1.432.477 0 .954.238 1.192.716l-.238.12c-.12-.359-.477-.598-.954-.598-.596 0-1.192.478-1.192 1.194 0 .597.477 1.194 1.192 1.194.477 0 .834-.239.954-.597l.238.12c-.238.358-.715.716-1.192.716-.835-.12-1.431-.716-1.431-1.433Zm5.006-1.075h-.954v2.388h-.238v-2.388h-.954v-.238h2.265v.239h-.119Zm3.336 1.075c0 .836-.596 1.433-1.431 1.433-.476 0-.953-.239-1.192-.716v1.67h-.238v-3.82h.238v.717c.239-.358.596-.716 1.192-.716.835 0 1.431.597 1.431 1.432Zm-.239 0c0-.597-.476-1.194-1.192-1.194-.596 0-1.192.478-1.192 1.194 0 .597.477 1.194 1.192 1.194.596-.12 1.192-.597 1.192-1.194Zm3.458-1.432v2.745h-.239v-.596c-.238.358-.596.716-1.192.716-.715 0-1.43-.597-1.43-1.433 0-.835.596-1.432 1.43-1.432.477 0 .954.238 1.192.716v-.597h.239v-.12Zm-.239 1.432c0-.597-.477-1.194-1.192-1.194-.596 0-1.192.478-1.192 1.194 0 .597.477 1.194 1.192 1.194.715-.12 1.192-.597 1.192-1.194Zm3.34-1.433v2.746h-.239v-1.194h-1.669v1.194h-.238v-2.746h.238v1.194h1.669v-1.194h.239Zm2.98.001v2.746h-.238v-1.194h-1.669v1.194h-.238v-2.746h.238v1.194h1.669v-1.194h.238Zm5.959 2.745-.954-1.193-.953 1.194h-.358l1.073-1.433-.954-1.313h.358l.834 1.075.835-1.075h.357l-.953 1.313 1.073 1.433h-.358Zm4.293 0h-.238v-1.074h-.596l-.835 1.074h-.357l.834-1.074c-.477 0-.715-.358-.715-.836 0-.477.357-.835.834-.835h1.073v2.745Zm-.238-1.313v-1.074h-.835c-.357 0-.596.239-.596.597s.239.597.596.597h.835v-.12Zm2.855.597c0 .358-.357.835-.953.835s-.954-.238-1.073-.596l.238-.12c.119.358.358.478.835.478.476 0 .715-.239.715-.597 0-.239-.239-.478-.596-.478h-.358v-.238h.239c.357 0 .596-.24.596-.478 0-.239-.239-.477-.596-.477-.358 0-.596.119-.716.477l-.238-.12c.119-.358.477-.596.954-.596.596 0 .953.358.953.716a.657.657 0 0 1-.357.597c.238 0 .357.239.357.597Zm2.506-.12a.816.816 0 0 1-.834.836h-1.073v-2.746h.238v1.075h.835c.476 0 .834.358.834.835Zm-.238 0c0-.358-.239-.597-.596-.597h-.835v1.075h.835c.357.12.596-.12.596-.478Zm.953-1.91v2.746h-.238v-2.746h.238Zm-13.473 1.911a.815.815 0 0 1-.834.835h-1.073v-2.745h.238v1.074h.835c.477 0 .834.358.834.836Zm-.238 0c0-.358-.239-.597-.596-.597h-.835v1.074h.835c.238.12.596-.12.596-.477Zm.954-1.91v2.745h-.239v-2.745h.239Zm15.265 2.745-1.431-1.313v1.313h-.238v-2.745h.238v1.193l1.311-1.193h.358l-1.43 1.313 1.549 1.432h-.357Zm.471-1.313c0-.835.596-1.432 1.431-1.432.834 0 1.43.597 1.43 1.432 0 .836-.596 1.433-1.43 1.433-.835-.12-1.431-.716-1.431-1.433Zm2.504 0c0-.597-.477-1.194-1.192-1.194-.596 0-1.192.478-1.192 1.194 0 .597.476 1.194 1.192 1.194.715-.12 1.192-.597 1.192-1.194Zm3.099.597c0 .358-.238.716-.834.716h-1.312v-2.745h1.192c.477 0 .835.358.835.716a.656.656 0 0 1-.358.597c.358.12.477.358.477.716Zm-1.907-1.671v.955h.953c.358 0 .477-.12.477-.478 0-.238-.238-.477-.477-.477h-.953Zm1.669 1.671c0-.239-.239-.477-.596-.477h-1.073v.955h1.073c.357 0 .596-.24.596-.478ZM86.695 33.052c0-.835.12-1.552.477-2.268.239-.716.596-1.194 1.073-1.671.477-.478.954-.836 1.55-1.075a4.778 4.778 0 0 1 1.788-.358c.953 0 1.669.239 2.384.597a5.083 5.083 0 0 1 1.43 1.313 5.62 5.62 0 0 1 .715 1.791c.12.597.12 1.313 0 1.91h-8.94c0 .836.12 1.552.477 2.03.238.596.715 1.074 1.192 1.432.477.358.954.597 1.55.836.596.12 1.192.239 1.907.239.596 0 1.192-.12 1.788-.24.596-.119 1.073-.357 1.55-.596v.477c-.477.24-.954.478-1.55.597-.596.12-1.192.24-1.788.24-.715 0-1.43-.12-2.026-.359-.716-.239-1.193-.478-1.789-.955-.476-.478-.953-.955-1.192-1.671-.477-.597-.596-1.433-.596-2.269Zm9.06-.238c0-.478 0-.956-.12-1.552-.119-.597-.357-1.075-.595-1.552a4.254 4.254 0 0 0-1.312-1.194c-.596-.358-1.192-.478-2.026-.478-.596 0-1.073.12-1.669.358-.477.24-.954.478-1.43.836a4.294 4.294 0 0 0-.954 1.433c-.239.597-.358 1.194-.358 2.03h8.464v.119Z" fill="#151515"/><path d="M92.175 39.5c-.834 0-1.668-.12-2.384-.359-.834-.238-1.55-.597-2.145-1.194a5.411 5.411 0 0 1-1.55-2.029 7.223 7.223 0 0 1-.596-2.865c0-.955.12-1.91.477-2.746.357-.836.834-1.432 1.43-2.03.596-.596 1.192-.954 1.908-1.313.715-.238 1.43-.477 2.264-.477 1.073 0 2.146.239 2.861.716a5.521 5.521 0 0 1 1.908 1.79c.477.717.715 1.433.834 2.27.12.835.12 1.551 0 2.267-.12.597-.596.955-1.192.955h-7.63c0 .12.12.24.12.358.239.478.477.717.835 1.075.357.239.715.477 1.192.597a6.29 6.29 0 0 0 2.98 0c.477-.12.834-.239 1.192-.478a1.081 1.081 0 0 1 1.192 0c.358.24.596.597.596 1.075v.477c0 .358-.239.836-.596.955a5.264 5.264 0 0 1-1.907.717c-.358.119-1.073.238-1.788.238Zm-3.695-7.88h5.96v-.12c-.119-.357-.238-.715-.476-1.074-.239-.358-.477-.596-.954-.835-.358-.239-.835-.358-1.43-.358-.477 0-.835.119-1.193.238-.357.12-.715.358-1.072.597-.239.239-.477.597-.716 1.075 0 .238 0 .358-.119.477Zm12.159-2.269c.239-.239.596-.597.954-.836.357-.238.715-.477 1.192-.597.477-.119.953-.238 1.549-.238.597 0 1.073.12 1.55.238.477.24.954.478 1.192.836.358.358.596.836.835 1.313.238.478.357 1.075.357 1.791v6.208h-.477v-6.208c0-.597-.119-1.074-.238-1.552-.119-.477-.477-.836-.715-1.194-.358-.358-.715-.597-1.073-.716-.477-.12-.834-.239-1.311-.239a5.12 5.12 0 0 0-1.431.239c-.477.12-.834.358-1.192.597-.357.239-.715.597-.953.836-.239.358-.477.596-.596.955v7.163h-.477V27.799h.477v2.268c-.12-.12.119-.358.357-.716Z" fill="#151515"/><path d="M108.267 39.26h-.477a1.195 1.195 0 0 1-1.192-1.194v-6.208c0-.477-.119-.835-.238-1.193-.119-.358-.239-.597-.477-.717-.238-.238-.477-.358-.715-.477-.596-.239-1.431-.239-2.027 0-.357.12-.715.239-.953.477l-.716.717a1.646 1.646 0 0 1-.357.477v6.805c0 .597-.477 1.194-1.192 1.194h-.477a1.195 1.195 0 0 1-1.192-1.194V27.8c0-.597.477-1.194 1.192-1.194h.477c.477 0 .953.358 1.073.716a4.395 4.395 0 0 1 1.311-.597c1.192-.358 2.622-.477 3.814 0a5.001 5.001 0 0 1 1.669 1.075 5 5 0 0 1 1.073 1.67c.239.598.358 1.434.358 2.15v6.208c.119.955-.358 1.432-.954 1.432Zm3.217-1.194V27.92h.596v10.147h-.596Z" fill="#151515"/><path d="M112.077 39.26h-.477a1.195 1.195 0 0 1-1.192-1.194V27.92c0-.597.477-1.194 1.192-1.194h.477c.596 0 1.192.478 1.192 1.194v10.147c0 .717-.596 1.194-1.192 1.194Zm-.238-13.132c-.358 0-.716-.12-.954-.358-.358-.239-.596-.716-.596-1.194 0-.477.238-.955.596-1.194.596-.477 1.55-.477 2.146 0 .357.24.596.717.596 1.194 0 .478-.239.955-.596 1.194-.477.239-.835.358-1.192.358Zm12.874 0c-.358 0-.715-.238-.954-.477-.357-.358-.477-.836-.477-1.313 0-.478.239-.956.716-1.194.596-.478 1.549-.358 2.026.239.358.358.477.835.477 1.313 0 .477-.477 2.268-.954 2.507-.238.12-.477-1.075-.834-1.075Zm-9.293 4.178c0-.477.119-.836.358-1.194.238-.358.476-.597.834-.835.358-.24.715-.359 1.192-.478.477-.12.835-.12 1.311-.12.596 0 1.312.12 1.908.24.596.119 1.192.358 1.549.596v.478c-.357-.239-.953-.478-1.549-.597-.596-.12-1.192-.239-1.908-.239-.357 0-.715 0-1.072.12-.358.119-.716.238-.954.358-.239.12-.477.358-.715.597a2.24 2.24 0 0 0-.239.955c0 .597.119.955.477 1.313s.834.597 1.311.716c.477.239 1.073.358 1.669.478.596.12 1.192.358 1.669.477.477.239.954.478 1.311.836.358.358.477.836.477 1.433 0 .477-.119.835-.357 1.193a2.791 2.791 0 0 1-.835.836c-.358.239-.715.358-1.192.477-.477.12-.954.12-1.43.12-.358 0-.716 0-1.073-.12-.358 0-.716-.119-1.073-.238-.358-.12-.715-.239-.954-.358-.357-.12-.596-.24-.834-.478v-.477c.238.119.477.358.834.477.358.12.596.239.954.358.357.12.715.12 1.073.239.357 0 .715.12 1.073.12.476 0 .834 0 1.311-.12l1.073-.358c.357-.12.596-.358.715-.597s.238-.597.238-.955c0-.597-.119-.955-.477-1.313-.357-.358-.834-.597-1.311-.717-.477-.238-1.073-.358-1.669-.477a6.894 6.894 0 0 1-1.669-.597c-.476-.239-.953-.478-1.311-.836-.477-.238-.715-.716-.715-1.313Z" fill="#151515"/><path d="M119.233 39.5c-.357 0-.834 0-1.192-.12-.357 0-.834-.12-1.192-.239-.358-.12-.834-.239-1.192-.358a2.597 2.597 0 0 1-.954-.597c-.357-.239-.476-.597-.476-.955v-.477c0-.478.238-.836.596-1.075a1.082 1.082 0 0 1 1.192 0c.238.12.357.239.596.358.238.12.476.239.834.239.239.12.596.12.835.239.715.12 1.311.12 1.907 0 .238-.12.477-.12.715-.239.119-.12.238-.12.358-.239 0 0 .119-.12.119-.358 0-.239-.119-.358-.119-.358-.239-.239-.596-.358-.954-.478-.477-.119-.954-.358-1.55-.477-.715-.12-1.311-.358-1.907-.597-.715-.239-1.192-.716-1.669-1.194-.596-.597-.834-1.313-.834-2.268 0-.716.119-1.313.477-1.79a5.636 5.636 0 0 1 1.192-1.195c.476-.238.953-.477 1.549-.596 1.192-.24 2.504-.24 3.696.119.715.239 1.311.477 1.907.716.358.239.596.597.596.955v.478c0 .477-.238.835-.596 1.074a1.082 1.082 0 0 1-1.192 0c-.358-.239-.715-.358-1.192-.477a5.457 5.457 0 0 0-2.384-.12.908.908 0 0 0-.596.239c-.119.12-.239.12-.358.239 0 .12-.119.239-.119.358 0 .358.119.358.119.478.239.238.596.358.954.477.477.12.953.358 1.549.477.716.12 1.312.359 1.908.597.715.24 1.192.597 1.669 1.075.596.597.834 1.313.834 2.268 0 .716-.119 1.313-.477 1.79a5.636 5.636 0 0 1-1.192 1.195c-.477.238-.954.477-1.55.597-.834.119-1.311.238-1.907.238Zm29.326-6.447c0-.955.119-1.79.477-2.388.358-.716.715-1.194 1.311-1.671.477-.478 1.073-.716 1.788-.955a5.39 5.39 0 0 1 1.908-.358c.476 0 .953.119 1.549.238.477.12.954.359 1.431.597v.478a3.98 3.98 0 0 0-1.431-.597c-.477-.12-1.073-.239-1.549-.239-.597 0-1.193.12-1.789.239-.596.239-1.072.478-1.549.836-.477.358-.835.955-1.192 1.552-.239.596-.477 1.313-.477 2.268 0 .836.119 1.552.358 2.149a3.26 3.26 0 0 0 1.072 1.432c.477.358.954.717 1.55.836.596.239 1.192.239 1.788.239.596 0 1.192-.12 1.669-.239.596-.12 1.073-.358 1.55-.597v.478a8.278 8.278 0 0 1-1.55.596c-.596.12-1.192.24-1.788.24a5.39 5.39 0 0 1-1.907-.359c-.596-.239-1.192-.477-1.669-.955a5.977 5.977 0 0 1-1.192-1.671c-.239-.478-.358-1.194-.358-2.15Z" fill="#151515"/><path d="M153.685 39.5a7.48 7.48 0 0 1-2.265-.359c-.715-.239-1.43-.597-2.026-1.194-.596-.477-1.073-1.193-1.431-2.03a7.233 7.233 0 0 1-.596-2.864c0-1.075.239-2.15.596-2.985a5.414 5.414 0 0 1 1.55-2.03c.596-.477 1.311-.954 2.146-1.193 1.311-.478 2.742-.478 4.172-.12.596.12 1.311.478 1.788.836.358.239.477.597.477.955v.478c0 .477-.239.835-.596 1.074-.358.239-.835.12-1.192-.12-.239-.238-.596-.357-1.073-.477-.954-.238-1.788-.238-2.623 0-.476.12-.834.358-1.192.717-.357.238-.596.597-.834 1.074-.238.477-.358 1.074-.358 1.671s.12 1.194.358 1.672c.238.477.477.835.715 1.074.358.239.715.478 1.073.597.834.358 1.907.239 2.861 0 .477-.12.834-.239 1.192-.478a1.082 1.082 0 0 1 1.192 0c.358.24.596.597.596 1.075v.477c0 .478-.238.836-.596 1.075a5.261 5.261 0 0 1-1.907.716c-.596.239-1.311.358-2.027.358Zm7.149-16.237v6.924c.119-.239.358-.478.596-.836.239-.239.596-.597.954-.835.358-.24.715-.478 1.192-.597.477-.12.954-.24 1.43-.24.596 0 1.073.12 1.55.24.477.238.954.477 1.192.835.358.358.596.836.835 1.313.238.478.357 1.075.357 1.791v6.208h-.477v-6.208c0-.597-.119-1.074-.238-1.552-.119-.477-.477-.835-.715-1.194-.358-.358-.715-.596-1.073-.716-.477-.12-.835-.239-1.311-.239a5.12 5.12 0 0 0-1.431.24c-.477.119-.834.357-1.192.596-.357.239-.715.597-.953.836-.239.358-.477.597-.597.955v7.163h-.476V23.263h.357Z" fill="#151515"/><path d="M169.06 39.26h-.477a1.195 1.195 0 0 1-1.192-1.194v-6.208c0-.477-.119-.835-.238-1.194-.119-.358-.239-.597-.477-.716-.238-.239-.477-.358-.715-.477-.596-.24-1.431-.24-2.027 0-.357.119-.715.238-.953.477l-.716.716a1.648 1.648 0 0 1-.357.478v6.805c0 .596-.477 1.193-1.192 1.193h-.477a1.195 1.195 0 0 1-1.192-1.193V23.263c0-.597.477-1.194 1.192-1.194h.477c.596 0 1.192.477 1.192 1.194v4.178a4.395 4.395 0 0 1 1.311-.597 6.908 6.908 0 0 1 3.815 0c.596.239 1.192.597 1.668 1.075a5 5 0 0 1 1.073 1.67c.239.598.358 1.434.358 2.15v6.208c0 .835-.477 1.313-1.073 1.313Zm3.221-6.208c0-.835.119-1.552.477-2.268.238-.597.715-1.194 1.192-1.671a5.001 5.001 0 0 1 1.669-1.075 5.392 5.392 0 0 1 1.907-.358c.715 0 1.312.12 2.027.358a5.001 5.001 0 0 1 1.669 1.075c.476.477.834.955 1.192 1.671.238.597.476 1.433.476 2.268 0 .836-.119 1.552-.476 2.269-.239.596-.716 1.193-1.192 1.671a5.003 5.003 0 0 1-1.669 1.074c-.596.24-1.312.358-2.027.358a4.93 4.93 0 0 1-1.907-.358 5.003 5.003 0 0 1-1.669-1.074 5.997 5.997 0 0 1-1.192-1.671c-.238-.717-.477-1.433-.477-2.269Zm10.013 0c0-.716-.119-1.432-.357-2.03-.239-.596-.596-1.074-1.073-1.551-.477-.358-.954-.716-1.55-.955a4.778 4.778 0 0 0-1.788-.358c-.596 0-1.192.12-1.788.358-.596.239-1.073.477-1.549.955-.477.358-.835.955-1.073 1.552-.239.597-.358 1.313-.358 2.03 0 .716.119 1.432.358 2.029.238.597.596 1.074 1.073 1.552.476.358.953.716 1.549.955a4.778 4.778 0 0 0 1.788.358c.596 0 1.192-.12 1.788-.358.596-.239 1.073-.478 1.55-.955.477-.358.834-.955 1.073-1.552.238-.597.357-1.313.357-2.03Z" fill="#151515"/><path d="M177.525 39.5c-.835 0-1.55-.12-2.384-.478-.835-.24-1.431-.717-2.027-1.314-.596-.596-1.073-1.193-1.43-2.03-.358-.835-.477-1.67-.477-2.745 0-.955.238-1.91.477-2.746.357-.835.834-1.432 1.43-2.03.596-.596 1.312-.954 2.027-1.312a6.57 6.57 0 0 1 4.768 0c.715.238 1.43.716 2.026 1.313.597.597 1.073 1.194 1.431 2.03.358.835.477 1.67.477 2.745 0 .955-.239 1.91-.477 2.746-.358.836-.834 1.432-1.431 2.03-.596.596-1.311.954-2.026 1.313-.715.238-1.55.477-2.384.477Zm0-10.148c-.477 0-.954.12-1.431.238-.476.12-.834.359-1.072.717-.358.358-.596.716-.716 1.074-.238.478-.238.955-.238 1.552 0 .597.119 1.194.238 1.552.239.478.477.836.716 1.075.357.358.715.477 1.072.716a3.633 3.633 0 0 0 2.742 0c.477-.12.835-.358 1.073-.717.358-.358.596-.716.715-1.074.239-.477.239-.955.239-1.552a5.31 5.31 0 0 0-.239-1.552c-.238-.477-.477-.835-.715-1.074-.358-.358-.715-.478-1.073-.717-.357-.119-.834-.238-1.311-.238Zm8.584 3.7c0-.835.12-1.552.477-2.268.239-.597.715-1.194 1.192-1.671a5.001 5.001 0 0 1 1.669-1.075 5.392 5.392 0 0 1 1.907-.358c.716 0 1.312.12 2.027.358a5.001 5.001 0 0 1 1.669 1.075 5.99 5.99 0 0 1 1.192 1.671c.238.597.477 1.433.477 2.268 0 .836-.12 1.552-.477 2.269-.239.596-.715 1.193-1.192 1.671a5.003 5.003 0 0 1-1.669 1.074c-.596.24-1.311.358-2.027.358a4.93 4.93 0 0 1-1.907-.358 5.003 5.003 0 0 1-1.669-1.074 5.997 5.997 0 0 1-1.192-1.671c-.357-.717-.477-1.433-.477-2.269Zm9.894 0c0-.716-.119-1.432-.357-2.03-.239-.596-.596-1.074-1.073-1.551-.477-.358-.954-.716-1.55-.955a4.778 4.778 0 0 0-1.788-.358c-.596 0-1.192.12-1.788.358-.596.239-1.073.477-1.55.955-.476.358-.834.955-1.072 1.552-.239.597-.358 1.313-.358 2.03 0 .716.119 1.432.358 2.029.238.597.596 1.074 1.072 1.552.477.358.954.716 1.55.955a4.778 4.778 0 0 0 1.788.358c.596 0 1.192-.12 1.788-.358.596-.239 1.073-.478 1.55-.955.477-.358.834-.955 1.073-1.552.238-.597.357-1.313.357-2.03Z" fill="#151515"/><path d="M191.349 39.5c-.834 0-1.55-.12-2.384-.478-.834-.24-1.43-.717-2.026-1.314-.596-.596-1.073-1.193-1.431-2.03-.358-.835-.477-1.67-.477-2.745 0-.955.239-1.91.477-2.746.358-.835.835-1.432 1.431-2.03.596-.596 1.311-.954 2.026-1.312a6.57 6.57 0 0 1 4.768 0c.715.238 1.431.716 2.027 1.313.596.597 1.073 1.194 1.43 2.03.358.835.477 1.67.477 2.745 0 .955-.238 1.91-.477 2.746-.357.836-.834 1.432-1.43 2.03-.596.596-1.312.954-2.027 1.313-.834.238-1.549.477-2.384.477Zm0-10.148c-.477 0-.954.12-1.43.238-.477.12-.835.359-1.073.717-.358.358-.596.716-.715 1.074-.239.478-.239.955-.239 1.552 0 .597.119 1.194.239 1.552.238.478.476.836.715 1.075.357.358.715.477 1.073.716a3.63 3.63 0 0 0 2.741 0c.477-.12.835-.358 1.073-.717.358-.358.596-.716.715-1.074.239-.477.239-.955.239-1.552 0-.597-.119-1.194-.239-1.552-.238-.477-.476-.835-.715-1.074-.357-.358-.715-.478-1.073-.717-.357-.119-.834-.238-1.311-.238Zm9.065-6.686v15.4h-.476v-15.4h.476Z" fill="#151515"/><path d="M200.415 39.26h-.477a1.195 1.195 0 0 1-1.192-1.193v-15.4c0-.597.477-1.194 1.192-1.194h.477c.596 0 1.192.477 1.192 1.194v15.4c-.119.716-.596 1.194-1.192 1.194Z" fill="#151515"/></g><defs><clipPath id="a"><path fill="#fff" d="M0 0h202v60H0z"/></clipPath></defs></svg>