<svg width="117" height="121" fill="none" xmlns="http://www.w3.org/2000/svg"><path d="m7.187 58.349.268.538c1.074 2.117 4.127 2.117 5.2 0l.268-.538c1.107-2.185 2.885-3.933 5.066-5.075l.537-.27c2.113-1.075 2.113-4.133 0-5.209l-.537-.269c-2.18-1.11-3.925-2.89-5.066-5.075l-.268-.538c-1.073-2.117-4.126-2.117-5.2 0l-.268.538c-1.107 2.185-2.885 3.932-5.065 5.075l-.537.269c-2.113 1.076-2.113 4.134 0 5.21l.537.269c2.18 1.109 3.925 2.89 5.065 5.075Z" fill="#fff"/><path d="m7.187 58.349.268.538c1.074 2.117 4.127 2.117 5.2 0l.268-.538c1.107-2.185 2.885-3.933 5.066-5.075l.537-.27c2.113-1.075 2.113-4.133 0-5.209l-.537-.269c-2.18-1.11-3.925-2.89-5.066-5.075l-.268-.538c-1.073-2.117-4.126-2.117-5.2 0l-.268.538c-1.107 2.185-2.885 3.932-5.065 5.075l-.537.269c-2.113 1.076-2.113 4.134 0 5.21l.537.269c2.18 1.109 3.925 2.89 5.065 5.075Z" fill="#FFF3D6"/><path d="m12.99 23.259 1.007.504a21.306 21.306 0 0 1 9.258 9.277l.504 1.008c1.979 3.899 7.547 3.899 9.526 0l.504-1.008a21.3 21.3 0 0 1 9.258-9.277l1.007-.504c3.89-1.983 3.89-7.563 0-9.546l-1.007-.504a21.306 21.306 0 0 1-9.258-9.276l-.504-1.009c-1.979-3.899-7.547-3.899-9.526 0l-.504 1.009a21.306 21.306 0 0 1-9.258 9.276l-1.006.504c-3.892 1.983-3.892 7.563 0 9.546Z" fill="#fff"/><path d="m12.99 23.259 1.007.504a21.306 21.306 0 0 1 9.258 9.277l.504 1.008c1.979 3.899 7.547 3.899 9.526 0l.504-1.008a21.3 21.3 0 0 1 9.258-9.277l1.007-.504c3.89-1.983 3.89-7.563 0-9.546l-1.007-.504a21.306 21.306 0 0 1-9.258-9.276l-.504-1.009c-1.979-3.899-7.547-3.899-9.526 0l-.504 1.009a21.306 21.306 0 0 1-9.258 9.276l-1.006.504c-3.892 1.983-3.892 7.563 0 9.546Z" fill="#FFF3D6"/><path d="m107.79 97.741-1.006-.504a21.305 21.305 0 0 1-9.259-9.277l-.503-1.008c-1.98-3.899-7.548-3.899-9.527 0l-.503 1.008a21.306 21.306 0 0 1-9.259 9.277l-1.006.504c-3.891 1.983-3.891 7.563 0 9.546l1.006.504a21.304 21.304 0 0 1 9.259 9.277l.503 1.008c1.98 3.899 7.548 3.899 9.527 0l.503-1.008c2.046-4 5.267-7.227 9.259-9.277l1.006-.504c3.891-1.983 3.891-7.563 0-9.546Z" fill="#fff"/><path d="m107.79 97.741-1.006-.504a21.305 21.305 0 0 1-9.259-9.277l-.503-1.008c-1.98-3.899-7.548-3.899-9.527 0l-.503 1.008a21.306 21.306 0 0 1-9.259 9.277l-1.006.504c-3.891 1.983-3.891 7.563 0 9.546l1.006.504a21.304 21.304 0 0 1 9.259 9.277l.503 1.008c1.98 3.899 7.548 3.899 9.527 0l.503-1.008c2.046-4 5.267-7.227 9.259-9.277l1.006-.504c3.891-1.983 3.891-7.563 0-9.546Z" fill="#FFF3D6"/><path d="m113.761 38.586-3.757-4.74 2.147-5.882c2.046-5.579.704-11.663-3.489-15.864-4.193-4.201-10.265-5.546-15.833-3.496l-5.87 2.152-4.73-3.765c-4.697-3.73-10.936-4.37-16.27-1.613-5.334 2.756-8.454 8.167-8.185 14.184l.268 5.78-4.931 3.261c-4.965 3.294-7.48 9.008-6.575 14.89a14.703 14.703 0 0 0 2.013 5.512L5.979 93.103c-5.803 6.016-5.736 15.73.168 21.645 2.986 2.992 6.944 4.504 10.902 4.504 3.959 0 7.75-1.445 10.701-4.302l44.012-42.653a14.638 14.638 0 0 0 5.502 2.017c.805.135 1.576.168 2.348.168 4.998 0 9.661-2.487 12.512-6.79l3.254-4.94 5.77.269c6.005.336 11.406-2.857 14.156-8.201 2.751-5.344 2.114-11.596-1.61-16.302l.067.068ZM49.824 62.248l6.574-6.823c.302.1.604.235.906.336l6.072 1.748 1.744 6.083c.1.303.235.605.336.908L55.09 74.55l-5.267-12.27v-.033ZM47.34 82.01l-9.191 8.907-4.898-11.495 9.024-9.344 5.099 11.932h-.034Zm-26.534 25.713c-2.08 2.016-5.468 1.983-7.515-.068-2.046-2.05-2.08-5.411-.067-7.528l12.379-12.84 4.763 11.125-9.594 9.277.034.034Zm85.608-57.442c-.336.672-1.745 2.857-4.697 2.723l-6.038-.303c-3.354-.168-6.608 1.48-8.487 4.302l-3.421 5.177c-1.644 2.487-4.194 2.319-4.932 2.184-.738-.1-3.22-.706-4.059-3.562l-1.811-6.32a9.487 9.487 0 0 0-6.575-6.587l-6.307-1.815c-2.851-.807-3.455-3.294-3.555-4.067-.101-.773-.302-3.294 2.18-4.94l5.166-3.43c2.818-1.848 4.462-5.108 4.294-8.503l-.302-6.05c-.134-2.991 2.046-4.37 2.717-4.705a5.104 5.104 0 0 1 2.348-.572c.906 0 1.98.27 3.053 1.11l4.931 3.932c2.583 2.05 6.139 2.655 9.259 1.512l6.105-2.252c2.784-1.008 4.73.639 5.267 1.177.536.538 2.18 2.487 1.174 5.277l-2.248 6.117c-1.14 3.126-.57 6.689 1.51 9.277l3.925 4.94c1.878 2.353.872 4.74.536 5.412l-.033-.034Z" fill="#fff"/><path d="m113.761 38.586-3.757-4.74 2.147-5.882c2.046-5.579.704-11.663-3.489-15.864-4.193-4.201-10.265-5.546-15.833-3.496l-5.87 2.152-4.73-3.765c-4.697-3.73-10.936-4.37-16.27-1.613-5.334 2.756-8.454 8.167-8.185 14.184l.268 5.78-4.931 3.261c-4.965 3.294-7.48 9.008-6.575 14.89a14.703 14.703 0 0 0 2.013 5.512L5.979 93.103c-5.803 6.016-5.736 15.73.168 21.645 2.986 2.992 6.944 4.504 10.902 4.504 3.959 0 7.75-1.445 10.701-4.302l44.012-42.653a14.638 14.638 0 0 0 5.502 2.017c.805.135 1.576.168 2.348.168 4.998 0 9.661-2.487 12.512-6.79l3.254-4.94 5.77.269c6.005.336 11.406-2.857 14.156-8.201 2.751-5.344 2.114-11.596-1.61-16.302l.067.068ZM49.824 62.248l6.574-6.823c.302.1.604.235.906.336l6.072 1.748 1.744 6.083c.1.303.235.605.336.908L55.09 74.55l-5.267-12.27v-.033ZM47.34 82.01l-9.191 8.907-4.898-11.495 9.024-9.344 5.099 11.932h-.034Zm-26.534 25.713c-2.08 2.016-5.468 1.983-7.515-.068-2.046-2.05-2.08-5.411-.067-7.528l12.379-12.84 4.763 11.125-9.594 9.277.034.034Zm85.608-57.442c-.336.672-1.745 2.857-4.697 2.723l-6.038-.303c-3.354-.168-6.608 1.48-8.487 4.302l-3.421 5.177c-1.644 2.487-4.194 2.319-4.932 2.184-.738-.1-3.22-.706-4.059-3.562l-1.811-6.32a9.487 9.487 0 0 0-6.575-6.587l-6.307-1.815c-2.851-.807-3.455-3.294-3.555-4.067-.101-.773-.302-3.294 2.18-4.94l5.166-3.43c2.818-1.848 4.462-5.108 4.294-8.503l-.302-6.05c-.134-2.991 2.046-4.37 2.717-4.705a5.104 5.104 0 0 1 2.348-.572c.906 0 1.98.27 3.053 1.11l4.931 3.932c2.583 2.05 6.139 2.655 9.259 1.512l6.105-2.252c2.784-1.008 4.73.639 5.267 1.177.536.538 2.18 2.487 1.174 5.277l-2.248 6.117c-1.14 3.126-.57 6.689 1.51 9.277l3.925 4.94c1.878 2.353.872 4.74.536 5.412l-.033-.034Z" fill="#FFF3D6"/></svg>