<svg width="54" height="57" fill="none" xmlns="http://www.w3.org/2000/svg"><path fill-rule="evenodd" clip-rule="evenodd" d="M14.118 55.453c.111-2 .314-5.633-.933-9.03-1.458-1.143-2.74-1.957-3.882-2.682C4.86 40.921 2.548 39.453.33 25.208-2.461 7.303 13.136 2.493 23.167 1.28 33.197.066 49.612-1.6 52.757 18.865 55.9 39.3 48.468 42.149 42.44 44.46l-.025.01c-6.033 2.312-15.122 3.838-15.122 3.838s-12.702 8.865-13.125 8.684c-.133-.057-.1-.629-.05-1.539Zm1.255-27.104c1.748-.212 3.009-1.68 2.816-3.278-.194-1.599-1.768-2.723-3.517-2.511-1.748.211-3.009 1.679-2.815 3.277.193 1.599 1.767 2.723 3.516 2.512Zm14.937-4.745c.193 1.599-1.068 3.066-2.816 3.278-1.749.211-3.323-.913-3.516-2.512-.194-1.598 1.067-3.066 2.816-3.277 1.748-.212 3.322.913 3.516 2.511Zm9.305 1.812c1.748-.212 3.01-1.68 2.816-3.278-.194-1.599-1.768-2.723-3.516-2.512-1.749.212-3.01 1.68-2.816 3.278.193 1.599 1.768 2.723 3.516 2.512Z" fill="#fff"/><path fill-rule="evenodd" clip-rule="evenodd" d="M14.118 55.453c.111-2 .314-5.633-.933-9.03-1.458-1.143-2.74-1.957-3.882-2.682C4.86 40.921 2.548 39.453.33 25.208-2.461 7.303 13.136 2.493 23.167 1.28 33.197.066 49.612-1.6 52.757 18.865 55.9 39.3 48.468 42.149 42.44 44.46l-.025.01c-6.033 2.312-15.122 3.838-15.122 3.838s-12.702 8.865-13.125 8.684c-.133-.057-.1-.629-.05-1.539Zm1.255-27.104c1.748-.212 3.009-1.68 2.816-3.278-.194-1.599-1.768-2.723-3.517-2.511-1.748.211-3.009 1.679-2.815 3.277.193 1.599 1.767 2.723 3.516 2.512Zm14.937-4.745c.193 1.599-1.068 3.066-2.816 3.278-1.749.211-3.323-.913-3.516-2.512-.194-1.598 1.067-3.066 2.816-3.277 1.748-.212 3.322.913 3.516 2.511Zm9.305 1.812c1.748-.212 3.01-1.68 2.816-3.278-.194-1.599-1.768-2.723-3.516-2.512-1.749.212-3.01 1.68-2.816 3.278.193 1.599 1.768 2.723 3.516 2.512Z" fill="rgba(0,0,0,0)"/><path fill-rule="evenodd" clip-rule="evenodd" d="M14.118 55.453c.111-2 .314-5.633-.933-9.03-1.458-1.143-2.74-1.957-3.882-2.682C4.86 40.921 2.548 39.453.33 25.208-2.461 7.303 13.136 2.493 23.167 1.28 33.197.066 49.612-1.6 52.757 18.865 55.9 39.3 48.468 42.149 42.44 44.46l-.025.01c-6.033 2.312-15.122 3.838-15.122 3.838s-12.702 8.865-13.125 8.684c-.133-.057-.1-.629-.05-1.539Zm1.255-27.104c1.748-.212 3.009-1.68 2.816-3.278-.194-1.599-1.768-2.723-3.517-2.511-1.748.211-3.009 1.679-2.815 3.277.193 1.599 1.767 2.723 3.516 2.512Zm14.937-4.745c.193 1.599-1.068 3.066-2.816 3.278-1.749.211-3.323-.913-3.516-2.512-.194-1.598 1.067-3.066 2.816-3.277 1.748-.212 3.322.913 3.516 2.511Zm9.305 1.812c1.748-.212 3.01-1.68 2.816-3.278-.194-1.599-1.768-2.723-3.516-2.512-1.749.212-3.01 1.68-2.816 3.278.193 1.599 1.768 2.723 3.516 2.512Z" fill="#fff"/></svg>