<svg width="59" height="60" fill="none" xmlns="http://www.w3.org/2000/svg"><path d="m3.57 28.933.134.267c.533 1.05 2.05 1.05 2.583 0l.134-.267a5.826 5.826 0 0 1 2.516-2.516l.267-.134c1.05-.533 1.05-2.05 0-2.583l-.267-.133a5.827 5.827 0 0 1-2.516-2.517l-.134-.267c-.533-1.05-2.05-1.05-2.583 0l-.133.267a5.827 5.827 0 0 1-2.517 2.517l-.267.133c-1.05.533-1.05 2.05 0 2.583l.267.134a5.826 5.826 0 0 1 2.517 2.516Z" fill="#fff"/><path d="m3.57 28.933.134.267c.533 1.05 2.05 1.05 2.583 0l.134-.267a5.826 5.826 0 0 1 2.516-2.516l.267-.134c1.05-.533 1.05-2.05 0-2.583l-.267-.133a5.827 5.827 0 0 1-2.516-2.517l-.134-.267c-.533-1.05-2.05-1.05-2.583 0l-.133.267a5.827 5.827 0 0 1-2.517 2.517l-.267.133c-1.05.533-1.05 2.05 0 2.583l.267.134a5.826 5.826 0 0 1 2.517 2.516Z" fill="#4A18C1"/><path d="m3.57 28.933.134.267c.533 1.05 2.05 1.05 2.583 0l.134-.267a5.826 5.826 0 0 1 2.516-2.516l.267-.134c1.05-.533 1.05-2.05 0-2.583l-.267-.133a5.827 5.827 0 0 1-2.516-2.517l-.134-.267c-.533-1.05-2.05-1.05-2.583 0l-.133.267a5.827 5.827 0 0 1-2.517 2.517l-.267.133c-1.05.533-1.05 2.05 0 2.583l.267.134a5.826 5.826 0 0 1 2.517 2.516Zm2.884-17.4.5.25a10.576 10.576 0 0 1 4.6 4.6l.25.5c.983 1.934 3.75 1.934 4.734 0l.25-.5a10.576 10.576 0 0 1 4.6-4.6l.5-.25c1.933-.983 1.933-3.75 0-4.733l-.5-.25a10.576 10.576 0 0 1-4.6-4.6l-.25-.5c-.984-1.933-3.75-1.933-4.734 0l-.25.5a10.576 10.576 0 0 1-4.6 4.6l-.5.25c-1.933.983-1.933 3.75 0 4.733Z" fill="#fff"/><path d="m6.454 11.533.5.25a10.576 10.576 0 0 1 4.6 4.6l.25.5c.983 1.934 3.75 1.934 4.734 0l.25-.5a10.576 10.576 0 0 1 4.6-4.6l.5-.25c1.933-.983 1.933-3.75 0-4.733l-.5-.25a10.576 10.576 0 0 1-4.6-4.6l-.25-.5c-.984-1.933-3.75-1.933-4.734 0l-.25.5a10.576 10.576 0 0 1-4.6 4.6l-.5.25c-1.933.983-1.933 3.75 0 4.733Z" fill="#4A18C1"/><path d="m6.454 11.533.5.25a10.576 10.576 0 0 1 4.6 4.6l.25.5c.983 1.934 3.75 1.934 4.734 0l.25-.5a10.576 10.576 0 0 1 4.6-4.6l.5-.25c1.933-.983 1.933-3.75 0-4.733l-.5-.25a10.576 10.576 0 0 1-4.6-4.6l-.25-.5c-.984-1.933-3.75-1.933-4.734 0l-.25.5a10.576 10.576 0 0 1-4.6 4.6l-.5.25c-1.933.983-1.933 3.75 0 4.733Zm47.1 36.934-.5-.25a10.575 10.575 0 0 1-4.6-4.6l-.25-.5c-.983-1.934-3.75-1.934-4.733 0l-.25.5a10.575 10.575 0 0 1-4.6 4.6l-.5.25c-1.934.983-1.934 3.75 0 4.733l.5.25a10.575 10.575 0 0 1 4.6 4.6l.25.5c.983 1.933 3.75 1.933 4.733 0l.25-.5a10.575 10.575 0 0 1 4.6-4.6l.5-.25c1.933-.983 1.933-3.75 0-4.733Z" fill="#fff"/><path d="m53.554 48.467-.5-.25a10.575 10.575 0 0 1-4.6-4.6l-.25-.5c-.983-1.934-3.75-1.934-4.733 0l-.25.5a10.575 10.575 0 0 1-4.6 4.6l-.5.25c-1.934.983-1.934 3.75 0 4.733l.5.25a10.575 10.575 0 0 1 4.6 4.6l.25.5c.983 1.933 3.75 1.933 4.733 0l.25-.5a10.575 10.575 0 0 1 4.6-4.6l.5-.25c1.933-.983 1.933-3.75 0-4.733Z" fill="#4A18C1"/><path d="m53.554 48.467-.5-.25a10.575 10.575 0 0 1-4.6-4.6l-.25-.5c-.983-1.934-3.75-1.934-4.733 0l-.25.5a10.575 10.575 0 0 1-4.6 4.6l-.5.25c-1.934.983-1.934 3.75 0 4.733l.5.25a10.575 10.575 0 0 1 4.6 4.6l.25.5c.983 1.933 3.75 1.933 4.733 0l.25-.5a10.575 10.575 0 0 1 4.6-4.6l.5-.25c1.933-.983 1.933-3.75 0-4.733Zm2.966-29.334-1.866-2.35 1.067-2.916A7.409 7.409 0 0 0 53.988 6a7.409 7.409 0 0 0-7.867-1.733l-2.917 1.066-2.35-1.866c-2.333-1.85-5.433-2.167-8.083-.8-2.65 1.366-4.2 4.05-4.067 7.033l.133 2.867-2.45 1.616a7.416 7.416 0 0 0-3.266 7.384c.15 1 .5 1.916 1 2.733L2.97 46.167C.088 49.15.12 53.967 3.054 56.9a7.646 7.646 0 0 0 5.417 2.233c1.966 0 3.85-.716 5.316-2.133l21.867-21.15c.817.5 1.733.85 2.733 1 .4.067.784.083 1.167.083 2.483 0 4.8-1.233 6.217-3.366l1.617-2.45 2.866.133c2.983.167 5.667-1.417 7.034-4.067 1.366-2.65 1.05-5.75-.8-8.083l.033.033ZM24.755 30.867l3.267-3.384c.15.05.3.117.45.167l3.017.867.866 3.016c.05.15.117.3.167.45l-5.15 4.984-2.617-6.084v-.016Zm-1.233 9.8-4.567 4.416-2.433-5.7 4.483-4.633 2.534 5.917h-.017Zm-13.184 12.75c-1.033 1-2.716.983-3.733-.034-1.016-1.016-1.033-2.683-.033-3.733l6.15-6.367 2.367 5.517-4.767 4.6.017.017Zm42.534-28.484c-.167.334-.867 1.417-2.334 1.35l-3-.15a4.81 4.81 0 0 0-4.216 2.134l-1.7 2.566c-.817 1.234-2.084 1.15-2.45 1.084-.367-.05-1.6-.35-2.017-1.767l-.9-3.133a4.71 4.71 0 0 0-3.267-3.267l-3.133-.9c-1.416-.4-1.716-1.633-1.767-2.017-.05-.383-.15-1.633 1.084-2.45l2.567-1.7a4.77 4.77 0 0 0 2.133-4.216l-.15-3c-.067-1.484 1.017-2.167 1.35-2.334a2.54 2.54 0 0 1 1.166-.283c.45 0 .984.133 1.517.55l2.45 1.95a4.81 4.81 0 0 0 4.6.75l3.033-1.117c1.384-.5 2.35.317 2.617.584.267.266 1.084 1.233.584 2.616l-1.117 3.034a4.768 4.768 0 0 0 .75 4.6l1.95 2.45c.933 1.166.433 2.35.267 2.683l-.017-.017Z" fill="#fff"/><path d="m56.52 19.133-1.866-2.35 1.067-2.916A7.409 7.409 0 0 0 53.988 6a7.409 7.409 0 0 0-7.867-1.733l-2.917 1.066-2.35-1.866c-2.333-1.85-5.433-2.167-8.083-.8-2.65 1.366-4.2 4.05-4.067 7.033l.133 2.867-2.45 1.616a7.416 7.416 0 0 0-3.266 7.384c.15 1 .5 1.916 1 2.733L2.97 46.167C.088 49.15.12 53.967 3.054 56.9a7.646 7.646 0 0 0 5.417 2.233c1.966 0 3.85-.716 5.316-2.133l21.867-21.15c.817.5 1.733.85 2.733 1 .4.067.784.083 1.167.083 2.483 0 4.8-1.233 6.217-3.366l1.617-2.45 2.866.133c2.983.167 5.667-1.417 7.034-4.067 1.366-2.65 1.05-5.75-.8-8.083l.033.033ZM24.755 30.867l3.267-3.384c.15.05.3.117.45.167l3.017.867.866 3.016c.05.15.117.3.167.45l-5.15 4.984-2.617-6.084v-.016Zm-1.233 9.8-4.567 4.416-2.433-5.7 4.483-4.633 2.534 5.917h-.017Zm-13.184 12.75c-1.033 1-2.716.983-3.733-.034-1.016-1.016-1.033-2.683-.033-3.733l6.15-6.367 2.367 5.517-4.767 4.6.017.017Zm42.534-28.484c-.167.334-.867 1.417-2.334 1.35l-3-.15a4.81 4.81 0 0 0-4.216 2.134l-1.7 2.566c-.817 1.234-2.084 1.15-2.45 1.084-.367-.05-1.6-.35-2.017-1.767l-.9-3.133a4.71 4.71 0 0 0-3.267-3.267l-3.133-.9c-1.416-.4-1.716-1.633-1.767-2.017-.05-.383-.15-1.633 1.084-2.45l2.567-1.7a4.77 4.77 0 0 0 2.133-4.216l-.15-3c-.067-1.484 1.017-2.167 1.35-2.334a2.54 2.54 0 0 1 1.166-.283c.45 0 .984.133 1.517.55l2.45 1.95a4.81 4.81 0 0 0 4.6.75l3.033-1.117c1.384-.5 2.35.317 2.617.584.267.266 1.084 1.233.584 2.616l-1.117 3.034a4.768 4.768 0 0 0 .75 4.6l1.95 2.45c.933 1.166.433 2.35.267 2.683l-.017-.017Z" fill="#4A18C1"/><path d="m56.52 19.133-1.866-2.35 1.067-2.916A7.409 7.409 0 0 0 53.988 6a7.409 7.409 0 0 0-7.867-1.733l-2.917 1.066-2.35-1.866c-2.333-1.85-5.433-2.167-8.083-.8-2.65 1.366-4.2 4.05-4.067 7.033l.133 2.867-2.45 1.616a7.416 7.416 0 0 0-3.266 7.384c.15 1 .5 1.916 1 2.733L2.97 46.167C.088 49.15.12 53.967 3.054 56.9a7.646 7.646 0 0 0 5.417 2.233c1.966 0 3.85-.716 5.316-2.133l21.867-21.15c.817.5 1.733.85 2.733 1 .4.067.784.083 1.167.083 2.483 0 4.8-1.233 6.217-3.366l1.617-2.45 2.866.133c2.983.167 5.667-1.417 7.034-4.067 1.366-2.65 1.05-5.75-.8-8.083l.033.033ZM24.755 30.867l3.267-3.384c.15.05.3.117.45.167l3.017.867.866 3.016c.05.15.117.3.167.45l-5.15 4.984-2.617-6.084v-.016Zm-1.233 9.8-4.567 4.416-2.433-5.7 4.483-4.633 2.534 5.917h-.017Zm-13.184 12.75c-1.033 1-2.716.983-3.733-.034-1.016-1.016-1.033-2.683-.033-3.733l6.15-6.367 2.367 5.517-4.767 4.6.017.017Zm42.534-28.484c-.167.334-.867 1.417-2.334 1.35l-3-.15a4.81 4.81 0 0 0-4.216 2.134l-1.7 2.566c-.817 1.234-2.084 1.15-2.45 1.084-.367-.05-1.6-.35-2.017-1.767l-.9-3.133a4.71 4.71 0 0 0-3.267-3.267l-3.133-.9c-1.416-.4-1.716-1.633-1.767-2.017-.05-.383-.15-1.633 1.084-2.45l2.567-1.7a4.77 4.77 0 0 0 2.133-4.216l-.15-3c-.067-1.484 1.017-2.167 1.35-2.334a2.54 2.54 0 0 1 1.166-.283c.45 0 .984.133 1.517.55l2.45 1.95a4.81 4.81 0 0 0 4.6.75l3.033-1.117c1.384-.5 2.35.317 2.617.584.267.266 1.084 1.233.584 2.616l-1.117 3.034a4.768 4.768 0 0 0 .75 4.6l1.95 2.45c.933 1.166.433 2.35.267 2.683l-.017-.017Z" fill="#fff"/></svg>